# Blender v2.74 (sub 0) OBJ File: 'bush.blend'
# www.blender.org
mtllib bush.mtl
o Icosphere_Icosphere.002
v 0.426330 -0.513026 -0.356054
v 0.764965 -0.094356 1.031918
v -1.046306 -0.226964 -0.118125
v 0.127292 0.027692 1.541458
v 0.296425 0.432566 -1.219281
v 1.063592 0.329693 0.189015
v -0.135954 -0.277219 1.286591
v 0.905230 -0.410537 0.121799
v -0.208900 -0.492315 0.297643
v -0.369490 -0.282740 -1.304715
v 0.156167 -0.394855 -1.176330
v 1.072689 -0.063509 -0.418970
v -1.029392 -0.156816 0.397303
v -0.810371 0.148642 1.129351
v -0.653272 0.052284 -1.121653
v 0.621590 0.026234 -1.124146
v 0.814316 0.397000 0.674683
v -0.861848 0.571365 -0.458490
v -0.261604 0.559232 -1.192883
v 0.754054 0.504822 -0.679767
v -0.069717 0.774910 0.844188
v 0.284790 0.947842 0.076385
v -0.459343 0.850701 0.432313
v -0.207164 0.992171 -0.603165
vt 0.661350 0.154297
vt 0.577842 0.218045
vt 0.563482 0.013468
vt 0.424437 0.218417
vt 0.545199 0.371226
vt 0.114684 0.137874
vt 0.149561 0.030049
vt 0.280312 0.237450
vt 0.448084 0.404751
vt 0.747694 0.445084
vt 0.584117 0.605336
vt 0.355948 0.657925
vt 0.586323 0.723432
vt 0.979900 0.905654
vt 0.852680 0.984654
vt 0.762572 0.843996
vt 0.887640 0.483188
vt 0.979108 0.715789
vt 0.747769 0.673486
vt 0.616062 0.951459
vt 0.660352 0.281405
vt 0.759013 0.371226
vt 0.787108 0.242015
vt 0.882117 0.273072
vt 0.875622 0.072883
vt 0.981736 0.211799
vt 0.074200 0.719540
vt 0.172885 0.678617
vt 0.260599 0.790851
vt 0.333260 0.576669
vt 0.183264 0.478091
vt 0.207951 0.389319
vt 0.427693 0.332236
vt 0.286160 0.143294
vt 0.790669 0.141292
vt 0.347428 0.047258
vt 0.023474 0.366162
vn 0.091500 -0.988500 0.120300
vn 0.948700 -0.223300 0.223800
vn -0.414600 -0.345700 0.841800
vn 0.407200 0.678200 0.611700
vn -0.418300 0.736700 0.531300
vn 0.151200 0.790100 -0.594000
vn 0.626200 0.776800 -0.066500
vn 0.422200 0.871700 -0.248700
vn 0.380200 0.817800 -0.432000
vn -0.549700 0.696800 -0.460800
vn -0.073100 0.990400 0.117500
vn -0.543400 0.839300 -0.017700
vn -0.797100 0.576600 0.179300
vn -0.028600 0.977900 0.207000
vn 0.424200 0.821500 0.380900
vn 0.592200 0.781700 0.195600
vn 0.889700 0.389400 -0.238500
vn 0.831900 0.236000 -0.502200
vn 0.674400 0.393400 -0.624800
vn -0.016500 0.133700 -0.990900
vn -0.384800 0.169800 -0.907300
vn -0.687400 0.451100 -0.569300
vn -0.974200 0.225600 0.001300
vn -0.924100 0.360700 0.126000
vn -0.244600 0.626300 0.740200
vn 0.613700 0.423100 0.666700
vn 0.880200 0.218100 0.421500
vn 0.199600 -0.069100 -0.977400
vn 0.212600 -0.114700 -0.970400
vn -0.935300 0.068000 -0.347400
vn -0.790900 -0.434600 -0.430700
vn -0.548700 -0.700400 0.456400
vn 0.315800 -0.754100 0.575900
vn 0.962800 -0.220200 0.156800
vn 0.439800 -0.811600 -0.384600
vn 0.656000 -0.686000 -0.314900
vn -0.133200 -0.986200 -0.098200
vn -0.181700 -0.977200 -0.109600
vn -0.255000 -0.961700 -0.100200
vn -0.360500 -0.922600 0.137400
vn -0.345500 -0.911400 0.223700
vn 0.543900 -0.745500 -0.385200
vn 0.103700 -0.973500 0.204100
vn 0.281000 -0.892300 0.353300
usemtl bush_leaves
s off
f 1/1/1 8/2/1 9/3/1
f 2/4/2 8/2/2 6/5/2
f 7/6/3 4/7/3 14/8/3
f 4/9/4 17/10/4 21/11/4
f 14/12/5 21/11/5 23/13/5
f 5/14/6 19/15/6 24/16/6
f 6/17/7 20/18/7 22/19/7
f 22/19/8 20/18/8 24/16/8
f 20/18/9 5/14/9 24/16/9
f 19/15/10 18/20/10 24/16/10
f 24/16/11 23/13/11 22/19/11
f 24/16/12 18/20/12 23/13/12
f 18/20/13 14/12/13 23/13/13
f 23/13/14 21/11/14 22/19/14
f 21/11/15 17/10/15 22/19/15
f 17/10/16 6/17/16 22/19/16
f 12/21/17 20/22/17 6/5/17
f 12/21/18 16/23/18 20/22/18
f 16/23/19 5/24/19 20/22/19
f 10/25/20 19/26/20 5/24/20
f 10/27/21 15/28/21 19/29/21
f 15/28/22 18/30/22 19/29/22
f 3/31/23 13/32/23 18/30/23
f 13/32/24 14/8/24 18/30/24
f 14/12/25 4/9/25 21/11/25
f 2/4/26 17/33/26 4/34/26
f 2/4/27 6/5/27 17/33/27
f 16/23/28 10/25/28 5/24/28
f 16/23/29 11/35/29 10/25/29
f 15/28/30 3/31/30 18/30/30
f 15/28/31 10/27/31 3/31/31
f 13/32/32 7/6/32 14/8/32
f 4/34/33 7/36/33 2/4/33
f 6/5/34 8/2/34 12/21/34
f 8/2/35 16/23/35 12/21/35
f 1/1/36 11/35/36 16/23/36
f 1/1/37 9/3/37 11/35/37
f 9/3/38 10/25/38 11/35/38
f 9/37/39 3/31/39 10/27/39
f 9/37/40 13/32/40 3/31/40
f 9/37/41 7/6/41 13/32/41
f 8/2/42 1/1/42 16/23/42
f 9/3/43 8/2/43 7/36/43
f 8/2/44 2/4/44 7/36/44
