# Blender v2.74 (sub 0) OBJ File: 'Katana.blend'
# www.blender.org
mtllib Katana.mtl
v 0.000000 -0.150000 -0.050000
v 0.000000 0.150000 -0.050000
v 0.043301 -0.150000 -0.025000
v 0.043301 0.150000 -0.025000
v 0.043301 -0.150000 0.025000
v 0.043301 0.150000 0.025000
v -0.000000 -0.150000 0.050000
v -0.000000 0.150000 0.050000
v -0.043301 -0.150000 0.025000
v -0.043301 0.150000 0.025000
v -0.043301 -0.150000 -0.025000
v -0.043301 0.150000 -0.025000
v 0.086603 0.150000 -0.050000
v 0.000000 0.150000 -0.100000
v 0.086603 0.150000 0.050000
v -0.000000 0.150000 0.100000
v -0.086603 0.150000 0.050000
v -0.086603 0.150000 -0.050000
v 0.086603 0.180000 -0.050000
v 0.000000 0.180000 -0.100000
v 0.086603 0.180000 0.050000
v -0.000000 0.180000 0.100000
v -0.086603 0.180000 0.050000
v -0.086603 0.180000 -0.050000
v 0.043301 0.180000 0.000000
v 0.000000 0.180000 -0.025000
v -0.000000 0.180000 0.025000
v -0.043301 0.180000 0.000000
v 0.043301 1.180000 0.000000
v 0.000000 1.180000 -0.025000
v -0.043301 1.180000 0.000000
v 0.000000 1.180000 0.025000
vn -0.500000 0.000000 -0.866000
vn 0.500000 -0.000000 -0.866000
vn 0.500000 -0.000000 0.866000
vn -0.500000 0.000000 0.866000
vn 0.000000 1.000000 0.000000
vn 0.000000 -1.000000 0.000000
vn -1.000000 0.000000 0.000000
vn 1.000000 0.000000 0.000000
usemtl shiny_blade
f 28//1 31//1 30//1
f 25//2 26//2 30//2
f 25//3 29//3 32//3
f 27//4 32//4 31//4
f 30//5 32//5 29//5
f 31//5 32//5 30//5
f 26//1 28//1 30//1
f 29//2 25//2 30//2
f 27//3 25//3 32//3
f 28//4 27//4 31//4
usemtl katana_tsuba
f 18//1 24//1 20//1
f 13//6 4//6 2//6
f 15//6 6//6 4//6
f 15//6 16//6 8//6
f 17//6 10//6 8//6
f 18//6 12//6 10//6
f 18//6 14//6 2//6
f 17//7 23//7 24//7
f 16//4 22//4 23//4
f 15//3 21//3 22//3
f 13//8 19//8 21//8
f 14//2 20//2 19//2
f 26//5 25//5 19//5
f 23//5 22//5 27//5
f 24//5 23//5 28//5
f 26//5 20//5 24//5
f 21//5 25//5 27//5
f 19//5 25//5 21//5
f 14//1 18//1 20//1
f 14//6 13//6 2//6
f 13//6 15//6 4//6
f 6//6 15//6 8//6
f 16//6 17//6 8//6
f 17//6 18//6 10//6
f 12//6 18//6 2//6
f 18//7 17//7 24//7
f 17//4 16//4 23//4
f 16//3 15//3 22//3
f 15//8 13//8 21//8
f 13//2 14//2 19//2
f 20//5 26//5 19//5
f 28//5 23//5 27//5
f 28//5 26//5 24//5
f 22//5 21//5 27//5
usemtl wooden_grip
f 2//2 4//2 3//2
f 4//8 6//8 5//8
f 6//3 8//3 7//3
f 8//4 10//4 9//4
f 12//1 2//1 1//1
f 10//7 12//7 11//7
f 11//6 5//6 9//6
f 1//2 2//2 3//2
f 3//8 4//8 5//8
f 5//3 6//3 7//3
f 7//4 8//4 9//4
f 11//1 12//1 1//1
f 9//7 10//7 11//7
f 3//6 11//6 1//6
f 5//6 7//6 9//6
f 11//6 3//6 5//6
