v 0.400000 -0.110000 -1.000000
v 0.400000 -0.110000 1.000000
v -0.300000 -0.110000 1.000000
v -0.300000 -0.110000 -1.000000
v 0.400000 -0.060000 -0.999999
v 0.399999 -0.060000 1.000001
v -0.300000 -0.060000 1.000000
v -0.300000 -0.060000 -1.000000
v 0.200000 -0.110000 -1.000000
v 0.200000 -0.110000 1.000000
v 0.200000 -0.060000 -1.000000
v 0.199999 -0.060000 1.000000
v 0.150000 -0.110000 -1.000000
v 0.150000 -0.110000 1.000000
v 0.150000 -0.060000 -1.000000
v 0.149999 -0.060000 1.000000
v -0.050000 -0.110000 -1.000000
v -0.050000 -0.110000 1.000000
v -0.050000 -0.060000 -1.000000
v -0.050001 -0.060000 1.000000
v -0.100000 -0.110000 -1.000000
v -0.100000 -0.110000 1.000000
v -0.100000 -0.060000 -1.000000
v -0.100001 -0.060000 1.000000
v -0.347500 -0.150000 0.850000
v -0.347500 -0.100000 0.850000
v -0.347500 -0.150000 -0.850000
v -0.347500 -0.100000 -0.850000
v 0.390000 -0.150000 0.850000
v 0.390000 -0.100000 0.850000
v 0.390000 -0.150000 -0.850000
v 0.390000 -0.100000 -0.850000
v -0.397500 -0.100000 0.850000
v -0.397500 -0.100000 -0.850000
v -0.347500 0.500000 0.850000
v -0.347500 0.500000 -0.850000
v -0.397500 0.500000 -0.850000
v -0.397500 0.500000 0.850000
v -0.347500 -0.100000 -0.950000
v -0.347500 -0.150000 -0.950000
v 0.390000 -0.100000 -0.950000
v 0.390000 -0.150000 -0.950000
v -0.397500 -0.100000 -0.950000
v -0.347500 0.500000 -0.950000
v -0.397500 0.500000 -0.950000
v -0.347500 -0.150000 0.950000
v -0.347500 -0.100000 0.950000
v 0.390000 -0.100000 0.950000
v 0.390000 -0.150000 0.950000
v -0.347500 0.500000 0.950000
v -0.397500 0.500000 0.950000
v -0.397500 -0.100000 0.950000
v -0.350000 0.100000 1.000000
v -0.350000 0.300000 1.000000
v -0.350000 0.100000 -1.000000
v -0.350000 0.300000 -1.000000
v -0.300000 0.100000 1.000000
v -0.300000 0.300000 1.000000
v -0.300000 0.100000 -1.000000
v -0.300000 0.300000 -1.000000
v -0.350000 0.350000 1.000000
v -0.350000 0.350000 -1.000000
v -0.300000 0.350000 -1.000000
v -0.300000 0.350000 1.000000
v -0.350000 0.550000 1.000000
v -0.350000 0.550000 -1.000000
v -0.300000 0.550000 -1.000000
v -0.300000 0.550000 1.000000
v 0.339896 -0.150000 -0.850000
v 0.390000 -0.550000 -0.950000
v 0.339896 -0.150000 -0.950000
v 0.390000 -0.550000 -0.850000
v 0.339896 -0.550000 -0.950000
v 0.339896 -0.550000 -0.850000
v 0.340000 -0.150000 0.850000
v 0.340000 -0.150000 0.950000
v 0.340000 -0.550000 0.850000
v 0.390000 -0.550000 0.850000
v 0.340000 -0.550000 0.950000
v 0.390000 -0.550000 0.950000
v -0.297500 -0.150000 0.850000
v -0.297500 -0.150000 0.950000
v -0.297500 -0.150000 -0.850000
v -0.297500 -0.150000 -0.950000
v -0.297500 -0.550000 -0.850000
v -0.347500 -0.550000 -0.850000
v -0.297500 -0.550000 -0.950000
v -0.347500 -0.550000 -0.950000
v -0.347500 -0.550000 0.850000
v -0.347500 -0.550000 0.950000
v -0.297500 -0.550000 0.850000
v -0.297500 -0.550000 0.950000
vt 0.899371 0.500000
vt 0.849056 0.500000
vt 0.849056 0.000000
vt 0.547169 0.500000
vt 0.496855 0.500000
vt 0.496855 0.000000
vt 0.899371 0.000000
vt 0.911949 0.000000
vt 0.188679 0.575000
vt 0.188679 0.525000
vt 0.201258 0.525000
vt 0.937107 0.500000
vt 0.924528 0.500000
vt 0.924528 0.000000
vt 0.213836 0.525000
vt 0.213836 0.575000
vt 0.201258 0.575000
vt 0.176100 0.525000
vt 0.176100 0.575000
vt 0.163522 0.575000
vt 0.163522 0.525000
vt 0.150943 0.575000
vt 0.597484 0.000000
vt 0.597484 0.500000
vt 0.748427 0.000000
vt 0.748427 0.500000
vt 0.698113 0.500000
vt 0.352227 0.525000
vt 0.352227 0.550000
vt 0.339648 0.550000
vt 0.226415 0.525000
vt 0.226415 0.575000
vt 0.798742 0.500000
vt 0.798742 0.000000
vt 0.647798 0.500000
vt 0.911950 0.500000
vt 0.949685 0.000000
vt 0.949685 0.500000
vt 0.459119 0.500000
vt 0.471698 0.500000
vt 0.471698 1.000000
vt 0.446540 0.500000
vt 0.459119 1.000000
vt 0.572327 0.500000
vt 0.597484 0.650000
vt 0.396226 0.612500
vt 0.396226 0.600000
vt 0.421383 0.600000
vt 0.396226 0.762500
vt 0.421383 0.612500
vt 0.622641 0.650000
vt 0.446540 0.762500
vt 0.421383 0.762500
vt 0.198113 0.150000
vt 0.198113 0.000000
vt 0.210692 0.000000
vt 0.471698 0.684375
vt 0.210692 0.162500
vt 0.210692 0.150000
vt 0.446540 0.600000
vt 0.446540 0.612500
vt 0.050314 0.625000
vt 0.050314 0.637500
vt 0.025157 0.625000
vt 0.000000 0.000000
vt 0.012579 0.000000
vt 0.012579 0.150000
vt 0.210692 0.425000
vt 0.198113 0.412500
vt 0.383647 0.412500
vt 0.383647 0.262500
vt 0.396226 0.262500
vt 0.185534 0.162500
vt 0.025157 0.162500
vt 0.396226 0.412500
vt 0.383647 0.425000
vt 0.327070 0.550000
vt 0.327070 0.525000
vt 0.339648 0.525000
vt 0.050314 0.525000
vt 0.075472 0.525000
vt 0.000000 0.412500
vt 0.185534 0.412500
vt 0.012605 0.425000
vt 0.000000 0.150000
vt 0.012579 0.162500
vt 0.100629 0.625000
vt 0.100629 0.525000
vt 0.125786 0.525000
vt 0.276729 0.550000
vt 0.276729 0.525000
vt 0.289334 0.525000
vt 0.185534 0.262500
vt 0.185534 0.425000
vt 0.647798 0.000000
vt 0.238993 0.575000
vt 0.238993 0.525000
vt 0.251572 0.525000
vt 0.446540 0.000000
vt 0.264151 0.575000
vt 0.264151 0.525000
vt 0.962264 0.000000
vt 0.974843 0.000000
vt 0.974843 0.500000
vt 0.396226 0.162500
vt 0.251572 0.575000
vt 0.012605 0.525000
vt 0.000000 0.525000
vt 0.962264 0.500000
vt 1.000000 0.000000
vt 1.000000 0.500000
vt 0.987421 0.500000
vt 0.396226 0.500000
vt 0.396226 0.000000
vt 0.125786 0.625000
vt 0.150943 0.525000
vt 0.547169 0.659375
vt 0.522012 0.659375
vt 0.522012 0.500000
vt 0.383621 0.162500
vt 0.223270 0.162500
vt 0.000000 0.637500
vt 0.000000 0.625000
vt 0.301913 0.525000
vt 0.301913 0.550000
vt 0.289334 0.550000
vt 0.210692 0.525000
vt 0.198113 0.525000
vt 0.198113 0.162500
vt 0.198113 0.262500
vt 0.522012 0.684375
vt 0.075472 0.625000
vt 0.572327 0.659349
vt 0.314491 0.525000
vt 0.314491 0.550000
vt 0.383647 0.525000
vt 0.371069 0.525000
vt 0.025157 0.262500
vt 0.012579 0.262500
vt 0.421383 0.500000
vt 0.223270 0.262500
vt 0.210692 0.262500
vt 0.185534 0.525000
vt 0.172956 0.525000
vt 0.547169 0.000000
vt 0.937107 0.000000
vt 0.698113 0.000000
vt 0.446540 1.000000
vt 0.572327 0.650000
vt 0.622641 0.500000
vt 0.496855 0.684375
vt 0.025157 0.525000
vt 0.025157 0.637500
vt 0.371069 0.425000
vt 0.198113 0.425000
vt 0.000000 0.425000
vt 0.172956 0.425000
vt 0.276729 0.575000
vt 0.987421 0.000000
vt 0.150943 0.625000
vt 0.396226 0.150000
vt 0.547169 0.659349
vn 0.000000 -1.000000 0.000000
vn 0.000000 1.000000 0.000000
vn 1.000000 0.000000 0.000000
vn -0.000000 0.000000 1.000000
vn -1.000000 -0.000000 -0.000000
vn 0.000000 0.000000 -1.000000
vn -0.707100 -0.707100 0.000000
f 22/1/1 3/2/1 4/3/1
f 23/4/2 8/5/2 7/6/2
f 5/1/3 6/7/3 2/8/3
f 24/9/4 7/10/4 3/11/4
f 3/12/5 7/13/5 8/14/5
f 21/15/6 4/16/6 8/17/6
f 1/18/6 9/19/6 11/20/6
f 6/21/4 12/20/4 10/22/4
f 11/23/2 12/24/2 6/4/2
f 1/25/1 2/26/1 10/27/1
f 36/28/2 44/29/2 45/30/2
f 13/31/6 17/32/6 19/16/6
f 16/10/4 20/9/4 18/19/4
f 19/33/2 20/34/2 16/3/2
f 14/35/1 18/24/1 17/23/1
f 23/36/3 24/8/3 22/14/3
f 15/37/3 16/38/3 14/12/3
f 18/39/5 20/40/5 19/41/5
f 10/42/5 12/39/5 11/43/5
f 28/44/3 39/24/3 44/45/3
f 33/46/7 25/47/7 46/48/7
f 38/49/5 33/46/5 52/50/5
f 35/51/3 50/45/3 47/24/3
f 37/52/5 45/53/5 43/50/5
f 43/54/6 45/55/6 44/56/6
f 41/57/2 39/40/2 28/5/2
f 40/58/6 43/54/6 39/59/6
f 27/60/7 34/61/7 43/50/7
f 29/62/3 30/63/3 49/64/3
f 38/65/6 35/66/6 26/67/6
f 76/68/4 48/69/4 47/70/4
f 47/70/4 50/71/4 51/72/4
f 75/73/6 81/74/6 26/67/6
f 47/70/4 52/75/4 46/76/4
f 38/77/2 51/78/2 50/79/2
f 82/62/3 92/80/3 91/81/3
f 32/82/4 28/83/4 69/84/4
f 33/85/6 26/67/6 25/86/6
f 75/87/5 77/88/5 79/89/5
f 74/90/1 73/91/1 70/92/1
f 34/69/4 28/83/4 36/93/4
f 34/69/4 27/94/4 28/83/4
f 56/27/5 55/35/5 53/95/5
f 60/96/6 59/97/6 55/98/6
f 58/99/3 57/6/3 59/5/3
f 54/100/4 53/101/4 57/91/4
f 55/102/1 59/103/1 57/104/1
f 42/105/6 70/72/6 73/71/6
f 64/106/4 68/98/4 65/101/4
f 69/84/4 74/107/4 72/108/4
f 62/37/1 63/102/1 64/109/1
f 58/110/2 60/111/2 56/112/2
f 67/112/2 66/104/2 65/103/2
f 63/42/3 67/113/3 68/114/3
f 62/32/6 66/31/6 67/97/6
f 61/33/5 65/26/5 66/25/5
f 71/115/5 73/89/5 74/116/5
f 75/117/1 76/118/1 82/119/1
f 71/120/6 84/121/6 39/59/6
f 32/122/3 31/123/3 42/64/3
f 78/124/1 80/125/1 79/126/1
f 76/68/4 79/127/4 80/128/4
f 29/129/6 78/130/6 77/93/6
f 26/5/2 47/119/2 48/131/2
f 83/132/3 85/81/3 87/88/3
f 83/4/1 84/44/1 71/133/1
f 86/125/1 88/124/1 87/134/1
f 91/78/1 92/77/1 90/135/1
f 46/76/4 90/136/4 92/137/4
f 81/74/6 91/138/6 89/139/6
f 25/47/5 89/113/5 90/140/5
f 40/48/5 88/140/5 86/42/5
f 84/121/6 87/141/6 88/142/6
f 27/94/4 86/143/4 85/144/4
f 21/7/1 22/1/1 4/3/1
f 24/145/2 23/4/2 7/6/2
f 1/36/3 5/1/3 2/8/3
f 22/17/4 24/9/4 3/11/4
f 4/146/5 3/12/5 8/14/5
f 23/11/6 21/15/6 8/17/6
f 5/21/6 1/18/6 11/20/6
f 2/116/4 6/21/4 10/22/4
f 5/145/2 11/23/2 6/4/2
f 9/147/1 1/25/1 10/27/1
f 37/79/2 36/28/2 45/30/2
f 15/15/6 13/31/6 19/16/6
f 14/18/4 16/10/4 18/19/4
f 15/2/2 19/33/2 16/3/2
f 13/95/1 14/35/1 17/23/1
f 21/13/3 23/36/3 22/14/3
f 13/146/3 15/37/3 14/12/3
f 17/43/5 18/39/5 19/41/5
f 9/148/5 10/42/5 11/43/5
f 36/149/3 28/44/3 44/45/3
f 52/50/7 33/46/7 46/48/7
f 51/53/5 38/49/5 52/50/5
f 26/150/3 35/51/3 47/24/3
f 34/61/5 37/52/5 43/50/5
f 39/59/6 43/54/6 44/56/6
f 32/151/2 41/57/2 28/5/2
f 40/48/7 27/60/7 43/50/7
f 80/152/3 78/80/3 29/62/3
f 30/63/3 48/153/3 49/64/3
f 49/64/3 80/152/3 29/62/3
f 33/85/6 38/65/6 26/67/6
f 47/70/4 82/154/4 76/68/4
f 82/154/4 47/70/4 46/76/4
f 76/68/4 49/155/4 48/69/4
f 52/75/4 47/70/4 51/72/4
f 30/54/6 29/129/6 75/73/6
f 75/73/6 26/67/6 30/54/6
f 26/67/6 81/74/6 25/86/6
f 35/30/2 38/77/2 50/79/2
f 81/132/3 82/62/3 91/81/3
f 69/84/4 31/156/4 32/82/4
f 28/83/4 83/157/4 69/84/4
f 83/157/4 28/83/4 27/94/4
f 76/115/5 75/87/5 79/89/5
f 72/126/1 74/90/1 70/92/1
f 37/130/4 34/69/4 36/93/4
f 54/147/5 56/27/5 53/95/5
f 56/106/6 60/96/6 55/98/6
f 60/42/3 58/99/3 59/5/3
f 58/158/4 54/100/4 57/91/4
f 53/109/1 55/102/1 57/104/1
f 71/120/6 42/105/6 73/71/6
f 61/100/4 64/106/4 65/101/4
f 31/156/4 69/84/4 72/108/4
f 61/38/1 62/37/1 64/109/1
f 54/159/2 58/110/2 56/112/2
f 68/159/2 67/112/2 65/103/2
f 64/99/3 63/42/3 68/114/3
f 63/96/6 62/32/6 67/97/6
f 62/34/5 61/33/5 66/25/5
f 69/160/5 71/115/5 74/116/5
f 81/4/1 75/117/1 82/119/1
f 41/161/6 42/105/6 71/120/6
f 71/120/6 39/59/6 41/161/6
f 39/59/6 84/121/6 40/58/6
f 42/64/3 41/153/3 32/122/3
f 72/108/3 70/152/3 42/64/3
f 42/64/3 31/123/3 72/108/3
f 77/92/1 78/124/1 79/126/1
f 49/155/4 76/68/4 80/128/4
f 75/73/6 29/129/6 77/93/6
f 30/151/2 26/5/2 48/131/2
f 84/87/3 83/132/3 87/88/3
f 69/162/1 83/4/1 71/133/1
f 85/135/1 86/125/1 87/134/1
f 89/134/1 91/78/1 90/135/1
f 82/154/4 46/76/4 92/137/4
f 25/86/6 81/74/6 89/139/6
f 46/48/5 25/47/5 90/140/5
f 27/60/5 40/48/5 86/42/5
f 40/58/6 84/121/6 88/142/6
f 83/157/4 27/94/4 85/144/4
