# Blender v2.74 (sub 0) OBJ File: 'plate2.blend'
# www.blender.org
o Plane
v -0.500000 0.000000 0.500000
v 0.500000 0.000000 0.500000
v -0.500000 0.000000 -0.500000
v 0.500000 0.000000 -0.500000
v 1.500000 0.000000 0.500000
v 1.500000 0.000000 -0.500000
v 2.500000 0.000000 0.500000
v 2.500000 0.000000 -0.500000
v 3.500000 0.000000 0.500000
v 3.500000 0.000000 -0.500000
v 4.500000 0.000000 0.500000
v 4.500000 0.000000 -0.500000
v 5.500000 0.000000 0.500000
v 5.500000 0.000000 -0.500000
v 6.500000 0.000000 0.500000
v 6.500000 0.000000 -0.500000
v 7.500000 0.000000 0.500000
v 7.500000 0.000000 -0.500000
v -1.500000 0.000000 0.500000
v -1.500000 0.000000 -0.500000
v -2.500000 0.000000 0.500000
v -2.500000 0.000000 -0.500000
v -3.500000 0.000000 0.500000
v -3.500000 0.000000 -0.500000
v -4.500000 0.000000 0.500000
v -4.500000 0.000000 -0.500000
v -5.500000 0.000000 0.500000
v -5.500000 0.000000 -0.500000
v -6.500000 0.000000 0.500000
v -6.500000 0.000000 -0.500000
v -7.500000 0.000000 0.500000
v -7.500000 0.000000 -0.500000
v -0.500000 0.000000 -1.500000
v 0.500000 0.000000 -1.500000
v 1.500000 0.000000 -1.500000
v 2.500000 0.000000 -1.500000
v 3.500000 0.000000 -1.500000
v 4.500000 0.000000 -1.500000
v 5.500000 0.000000 -1.500000
v 6.500000 0.000000 -1.500000
v 7.500000 0.000000 -1.500000
v -1.500000 0.000000 -1.500000
v -2.500000 0.000000 -1.500000
v -3.500000 0.000000 -1.500000
v -4.500000 0.000000 -1.500000
v -5.500000 0.000000 -1.500000
v -6.500000 0.000000 -1.500000
v -7.500000 0.000000 -1.500000
v -0.500000 0.000000 -2.500000
v 0.500000 0.000000 -2.500000
v 1.500000 0.000000 -2.500000
v 2.500000 0.000000 -2.500000
v 3.500000 0.000000 -2.500000
v 4.500000 0.000000 -2.500000
v 5.500000 0.000000 -2.500000
v 6.500000 0.000000 -2.500000
v 7.500000 0.000000 -2.500000
v -1.500000 0.000000 -2.500000
v -2.500000 0.000000 -2.500000
v -3.500000 0.000000 -2.500000
v -4.500000 0.000000 -2.500000
v -5.500000 0.000000 -2.500000
v -6.500000 0.000000 -2.500000
v -7.500000 0.000000 -2.500000
v -0.500000 0.000000 -3.500000
v 0.500000 0.000000 -3.500000
v 1.500000 0.000000 -3.500000
v 2.500000 0.000000 -3.500000
v 3.500000 0.000000 -3.500000
v 4.500000 0.000000 -3.500000
v 5.500000 0.000000 -3.500000
v 6.500000 0.000000 -3.500000
v 7.500000 0.000000 -3.500000
v -1.500000 0.000000 -3.500000
v -2.500000 0.000000 -3.500000
v -3.500000 0.000000 -3.500000
v -4.500000 0.000000 -3.500000
v -5.500000 0.000000 -3.500000
v -6.500000 0.000000 -3.500000
v -7.500000 0.000000 -3.500000
v -0.500000 0.000000 -7.500000
v 0.500000 0.000000 -7.500000
v 1.500000 0.000000 -7.500000
v 2.500000 0.000000 -7.500000
v 3.500000 0.000000 -7.500000
v 4.500000 0.000000 -7.500000
v 5.500000 0.000000 -7.500000
v 6.500000 0.000000 -7.500000
v 7.500000 0.000000 -7.500000
v -1.500000 0.000000 -7.500000
v -2.500000 0.000000 -7.500000
v -3.500000 0.000000 -7.500000
v -4.500000 0.000000 -7.500000
v -5.500000 0.000000 -7.500000
v -6.500000 0.000000 -7.500000
v -7.500000 0.000000 -7.500000
v -0.500000 0.000000 0.500000
v 0.500000 0.000000 0.500000
v 1.500000 0.000000 0.500000
v 2.500000 0.000000 0.500000
v 3.500000 0.000000 0.500000
v 4.500000 0.000000 0.500000
v 5.500000 0.000000 0.500000
v 6.500000 0.000000 0.500000
v 7.500000 0.000000 0.500000
v -1.500000 0.000000 0.500000
v -2.500000 0.000000 0.500000
v -3.500000 0.000000 0.500000
v -4.500000 0.000000 0.500000
v -5.500000 0.000000 0.500000
v -6.500000 0.000000 0.500000
v -7.500000 0.000000 0.500000
v -0.500000 0.000000 1.500000
v 0.500000 0.000000 1.500000
v 1.500000 0.000000 1.500000
v 2.500000 0.000000 1.500000
v 3.500000 0.000000 1.500000
v 4.500000 0.000000 1.500000
v 5.500000 0.000000 1.500000
v 6.500000 0.000000 1.500000
v 7.500000 0.000000 1.500000
v -1.500000 0.000000 1.500000
v -2.500000 0.000000 1.500000
v -3.500000 0.000000 1.500000
v -4.500000 0.000000 1.500000
v -5.500000 0.000000 1.500000
v -6.500000 0.000000 1.500000
v -7.500000 0.000000 1.500000
v -0.500000 0.000000 2.500000
v 0.500000 0.000000 2.500000
v 1.500000 0.000000 2.500000
v 2.500000 0.000000 2.500000
v 3.500000 0.000000 2.500000
v 4.500000 0.000000 2.500000
v 5.500000 0.000000 2.500000
v 6.500000 0.000000 2.500000
v 7.500000 0.000000 2.500000
v -1.500000 0.000000 2.500000
v -2.500000 0.000000 2.500000
v -3.500000 0.000000 2.500000
v -4.500000 0.000000 2.500000
v -5.500000 0.000000 2.500000
v -6.500000 0.000000 2.500000
v -7.500000 0.000000 2.500000
v -0.500000 0.000000 3.500000
v 0.500000 0.000000 3.500000
v 1.500000 0.000000 3.500000
v 2.500000 0.000000 3.500000
v 3.500000 0.000000 3.500000
v 4.500000 0.000000 3.500000
v 5.500000 0.000000 3.500000
v 6.500000 0.000000 3.500000
v 7.500000 0.000000 3.500000
v -1.500000 0.000000 3.500000
v -2.500000 0.000000 3.500000
v -3.500000 0.000000 3.500000
v -4.500000 0.000000 3.500000
v -5.500000 0.000000 3.500000
v -6.500000 0.000000 3.500000
v -7.500000 0.000000 3.500000
v -0.500000 0.000000 4.500000
v 0.500000 0.000000 4.500000
v 1.500000 0.000000 4.500000
v 2.500000 0.000000 4.500000
v 3.500000 0.000000 4.500000
v 4.500000 0.000000 4.500000
v 5.500000 0.000000 4.500000
v 6.500000 0.000000 4.500000
v 7.500000 0.000000 4.500000
v -1.500000 0.000000 4.500000
v -2.500000 0.000000 4.500000
v -3.500000 0.000000 4.500000
v -4.500000 0.000000 4.500000
v -5.500000 0.000000 4.500000
v -6.500000 0.000000 4.500000
v -7.500000 0.000000 4.500000
v -0.500000 0.000000 5.500000
v 0.500000 0.000000 5.500000
v 1.500000 0.000000 5.500000
v 2.500000 0.000000 5.500000
v 3.500000 0.000000 5.500000
v 4.500000 0.000000 5.500000
v 5.500000 0.000000 5.500000
v 6.500000 0.000000 5.500000
v 7.500000 0.000000 5.500000
v -1.500000 0.000000 5.500000
v -2.500000 0.000000 5.500000
v -3.500000 0.000000 5.500000
v -4.500000 0.000000 5.500000
v -5.500000 0.000000 5.500000
v -6.500000 0.000000 5.500000
v -7.500000 0.000000 5.500000
v -0.500000 0.000000 6.500000
v 0.500000 0.000000 6.500000
v 1.500000 0.000000 6.500000
v 2.500000 0.000000 6.500000
v 3.500000 0.000000 6.500000
v 4.500000 0.000000 6.500000
v 5.500000 0.000000 6.500000
v 6.500000 0.000000 6.500000
v 7.500000 0.000000 6.500000
v -1.500000 0.000000 6.500000
v -2.500000 0.000000 6.500000
v -3.500000 0.000000 6.500000
v -4.500000 0.000000 6.500000
v -5.500000 0.000000 6.500000
v -6.500000 0.000000 6.500000
v -7.500000 0.000000 6.500000
v -0.500000 0.000000 7.500000
v 0.500000 0.000000 7.500000
v 1.500000 0.000000 7.500000
v 2.500000 0.000000 7.500000
v 3.500000 0.000000 7.500000
v 4.500000 0.000000 7.500000
v 5.500000 0.000000 7.500000
v 6.500000 0.000000 7.500000
v 7.500000 0.000000 7.500000
v -1.500000 0.000000 7.500000
v -2.500000 0.000000 7.500000
v -3.500000 0.000000 7.500000
v -4.500000 0.000000 7.500000
v -5.500000 0.000000 7.500000
v -6.500000 0.000000 7.500000
v -7.500000 0.000000 7.500000
vt 0.533173 0.000141
vt 0.533173 0.066770
vt 0.466544 0.066770
vt 0.599802 0.000141
vt 0.599802 0.066770
vt 0.666431 0.000141
vt 0.666431 0.066770
vt 0.733060 0.000141
vt 0.733060 0.066770
vt 0.799689 0.000141
vt 0.799689 0.066770
vt 0.866318 0.000141
vt 0.866318 0.066770
vt 0.932947 0.000141
vt 0.932947 0.066770
vt 0.999576 0.000141
vt 0.999576 0.066770
vt 0.399915 0.066770
vt 0.399915 0.000141
vt 0.333286 0.066770
vt 0.333286 0.000141
vt 0.266657 0.066770
vt 0.266657 0.000141
vt 0.200028 0.066770
vt 0.200028 0.000141
vt 0.133399 0.066770
vt 0.133399 0.000141
vt 0.066770 0.066770
vt 0.066770 0.000141
vt 0.000141 0.066770
vt 0.000141 0.000142
vt 0.066770 0.133399
vt 0.000141 0.133399
vt 0.133399 0.133399
vt 0.200028 0.133399
vt 0.266657 0.133399
vt 0.333286 0.133399
vt 0.399915 0.133399
vt 0.466544 0.133399
vt 0.999576 0.133399
vt 0.932947 0.133399
vt 0.866318 0.133399
vt 0.799689 0.133399
vt 0.733060 0.133399
vt 0.666431 0.133399
vt 0.599802 0.133399
vt 0.533173 0.133399
vt 0.066770 0.200028
vt 0.000141 0.200028
vt 0.133399 0.200028
vt 0.200028 0.200028
vt 0.266657 0.200028
vt 0.333286 0.200028
vt 0.399915 0.200028
vt 0.466544 0.200028
vt 0.999576 0.200028
vt 0.932947 0.200028
vt 0.866318 0.200028
vt 0.799689 0.200028
vt 0.733060 0.200028
vt 0.666431 0.200028
vt 0.599802 0.200028
vt 0.533173 0.200028
vt 0.066770 0.266657
vt 0.000141 0.266657
vt 0.133399 0.266657
vt 0.200028 0.266657
vt 0.266657 0.266657
vt 0.333286 0.266657
vt 0.399915 0.266657
vt 0.466544 0.266657
vt 0.999576 0.266657
vt 0.932947 0.266657
vt 0.866318 0.266657
vt 0.799689 0.266657
vt 0.733060 0.266657
vt 0.666431 0.266657
vt 0.599802 0.266657
vt 0.533173 0.266657
vt 0.066770 0.533173
vt 0.000141 0.533173
vt 0.133399 0.533173
vt 0.200028 0.533173
vt 0.266657 0.533173
vt 0.333286 0.533173
vt 0.399915 0.533173
vt 0.466544 0.533173
vt 0.999576 0.533173
vt 0.932947 0.533173
vt 0.866318 0.533173
vt 0.799689 0.533173
vt 0.733060 0.533173
vt 0.666431 0.533173
vt 0.599802 0.533173
vt 0.533173 0.533173
vt 0.000000 0.000000
vt 0.000141 0.999859
vt 0.000141 0.933230
vt 0.066770 0.933230
vt 0.066770 0.999859
vt 0.133399 0.933230
vt 0.133399 0.999859
vt 0.200028 0.933230
vt 0.200028 0.999859
vt 0.266657 0.933230
vt 0.266657 0.999859
vt 0.333286 0.933230
vt 0.333286 0.999859
vt 0.399915 0.933230
vt 0.399915 0.999859
vt 0.466544 0.933230
vt 0.932947 0.999858
vt 0.932947 0.933230
vt 0.999575 0.933229
vt 0.866318 0.999858
vt 0.866318 0.933230
vt 0.799689 0.999858
vt 0.799689 0.933230
vt 0.733060 0.999858
vt 0.733060 0.933230
vt 0.666431 0.999858
vt 0.666431 0.933230
vt 0.599802 0.999859
vt 0.599802 0.933230
vt 0.533173 0.999859
vt 0.533173 0.933230
vt 0.466544 0.999859
vt 0.000141 0.866601
vt 0.066770 0.866601
vt 0.133399 0.866601
vt 0.200028 0.866601
vt 0.266657 0.866601
vt 0.333286 0.866601
vt 0.399915 0.866601
vt 0.466544 0.866601
vt 0.932947 0.866601
vt 0.999575 0.866601
vt 0.866318 0.866601
vt 0.799689 0.866601
vt 0.733060 0.866601
vt 0.666431 0.866601
vt 0.599802 0.866601
vt 0.533173 0.866601
vt 0.000141 0.799972
vt 0.066770 0.799972
vt 0.133399 0.799972
vt 0.200028 0.799972
vt 0.266657 0.799972
vt 0.333286 0.799972
vt 0.399915 0.799972
vt 0.466544 0.799972
vt 0.932947 0.799972
vt 0.999575 0.799972
vt 0.866318 0.799972
vt 0.799689 0.799972
vt 0.733060 0.799972
vt 0.666431 0.799972
vt 0.599802 0.799972
vt 0.533173 0.799972
vt 0.000141 0.733343
vt 0.066770 0.733343
vt 0.133399 0.733343
vt 0.200028 0.733343
vt 0.266657 0.733343
vt 0.333286 0.733343
vt 0.399915 0.733343
vt 0.466544 0.733343
vt 0.932946 0.733343
vt 0.999575 0.733343
vt 0.866318 0.733343
vt 0.799689 0.733343
vt 0.733060 0.733343
vt 0.666431 0.733343
vt 0.599802 0.733343
vt 0.533173 0.733343
vt 0.000141 0.666714
vt 0.066770 0.666714
vt 0.133399 0.666714
vt 0.200028 0.666714
vt 0.266657 0.666714
vt 0.333286 0.666714
vt 0.399915 0.666714
vt 0.466544 0.666714
vt 0.932946 0.666714
vt 0.999575 0.666714
vt 0.866318 0.666714
vt 0.799689 0.666714
vt 0.733060 0.666714
vt 0.666431 0.666714
vt 0.599802 0.666714
vt 0.533173 0.666714
vt 0.000141 0.600085
vt 0.066770 0.600085
vt 0.133399 0.600085
vt 0.200028 0.600085
vt 0.266657 0.600085
vt 0.333286 0.600085
vt 0.399915 0.600085
vt 0.466544 0.600085
vt 0.932946 0.600085
vt 0.999575 0.600085
vt 0.866318 0.600085
vt 0.799689 0.600085
vt 0.733060 0.600085
vt 0.666431 0.600085
vt 0.599802 0.600085
vt 0.533173 0.600085
vt 0.000141 0.533456
vt 0.066770 0.533456
vt 0.133399 0.533456
vt 0.200028 0.533456
vt 0.266657 0.533456
vt 0.333286 0.533456
vt 0.399915 0.533456
vt 0.466544 0.533456
vt 0.932946 0.533456
vt 0.999575 0.533456
vt 0.866317 0.533456
vt 0.799689 0.533456
vt 0.733060 0.533456
vt 0.666431 0.533456
vt 0.599802 0.533456
vt 0.533173 0.533456
vt 0.466544 0.000141
vt 0.999575 0.999858
vn 0.000000 1.000000 0.000000
vn 0.000000 0.000000 1.000000
s off
f 2/1/1 4/2/1 3/3/1
f 2/1/1 5/4/1 6/5/1
f 5/4/1 7/6/1 8/7/1
f 7/6/1 9/8/1 10/9/1
f 9/8/1 11/10/1 12/11/1
f 11/10/1 13/12/1 14/13/1
f 13/12/1 15/14/1 16/15/1
f 15/14/1 17/16/1 18/17/1
f 3/3/1 20/18/1 19/19/1
f 20/18/1 22/20/1 21/21/1
f 22/20/1 24/22/1 23/23/1
f 24/22/1 26/24/1 25/25/1
f 26/24/1 28/26/1 27/27/1
f 28/26/1 30/28/1 29/29/1
f 30/28/1 32/30/1 31/31/1
f 30/28/1 47/32/1 48/33/1
f 28/26/1 46/34/1 47/32/1
f 26/24/1 45/35/1 46/34/1
f 24/22/1 44/36/1 45/35/1
f 22/20/1 43/37/1 44/36/1
f 20/18/1 42/38/1 43/37/1
f 3/3/1 33/39/1 42/38/1
f 18/17/1 41/40/1 40/41/1
f 16/15/1 40/41/1 39/42/1
f 14/13/1 39/42/1 38/43/1
f 12/11/1 38/43/1 37/44/1
f 10/9/1 37/44/1 36/45/1
f 8/7/1 36/45/1 35/46/1
f 6/5/1 35/46/1 34/47/1
f 4/2/1 34/47/1 33/39/1
f 47/32/1 63/48/1 64/49/1
f 46/34/1 62/50/1 63/48/1
f 45/35/1 61/51/1 62/50/1
f 44/36/1 60/52/1 61/51/1
f 43/37/1 59/53/1 60/52/1
f 42/38/1 58/54/1 59/53/1
f 33/39/1 49/55/1 58/54/1
f 41/40/1 57/56/1 56/57/1
f 40/41/1 56/57/1 55/58/1
f 39/42/1 55/58/1 54/59/1
f 38/43/1 54/59/1 53/60/1
f 37/44/1 53/60/1 52/61/1
f 36/45/1 52/61/1 51/62/1
f 35/46/1 51/62/1 50/63/1
f 34/47/1 50/63/1 49/55/1
f 63/48/1 79/64/1 80/65/1
f 62/50/1 78/66/1 79/64/1
f 61/51/1 77/67/1 78/66/1
f 60/52/1 76/68/1 77/67/1
f 59/53/1 75/69/1 76/68/1
f 58/54/1 74/70/1 75/69/1
f 49/55/1 65/71/1 74/70/1
f 57/56/1 73/72/1 72/73/1
f 56/57/1 72/73/1 71/74/1
f 55/58/1 71/74/1 70/75/1
f 54/59/1 70/75/1 69/76/1
f 53/60/1 69/76/1 68/77/1
f 52/61/1 68/77/1 67/78/1
f 51/62/1 67/78/1 66/79/1
f 50/63/1 66/79/1 65/71/1
f 79/64/1 95/80/1 96/81/1
f 78/66/1 94/82/1 95/80/1
f 77/67/1 93/83/1 94/82/1
f 76/68/1 92/84/1 93/83/1
f 75/69/1 91/85/1 92/84/1
f 74/70/1 90/86/1 91/85/1
f 65/71/1 81/87/1 90/86/1
f 73/72/1 89/88/1 88/89/1
f 72/73/1 88/89/1 87/90/1
f 71/74/1 87/90/1 86/91/1
f 70/75/1 86/91/1 85/92/1
f 69/76/1 85/92/1 84/93/1
f 68/77/1 84/93/1 83/94/1
f 67/78/1 83/94/1 82/95/1
f 66/79/1 82/95/1 81/87/1
f 29/96/2 31/96/2 112/96/2
f 27/96/2 29/96/2 111/96/2
f 25/96/2 27/96/2 110/96/2
f 23/96/2 25/96/2 109/96/2
f 21/96/2 23/96/2 108/96/2
f 19/96/2 21/96/2 107/96/2
f 1/96/2 19/96/2 106/96/2
f 17/96/2 15/96/2 104/96/2
f 15/96/2 13/96/2 103/96/2
f 13/96/2 11/96/2 102/96/2
f 11/96/2 9/96/2 101/96/2
f 9/96/2 7/96/2 100/96/2
f 7/96/2 5/96/2 99/96/2
f 5/96/2 2/96/2 98/96/2
f 2/96/2 1/96/2 97/96/2
f 112/97/1 128/98/1 127/99/1
f 111/100/1 127/99/1 126/101/1
f 110/102/1 126/101/1 125/103/1
f 109/104/1 125/103/1 124/105/1
f 108/106/1 124/105/1 123/107/1
f 107/108/1 123/107/1 122/109/1
f 106/110/1 122/109/1 113/111/1
f 104/112/1 120/113/1 121/114/1
f 103/115/1 119/116/1 120/113/1
f 102/117/1 118/118/1 119/116/1
f 101/119/1 117/120/1 118/118/1
f 100/121/1 116/122/1 117/120/1
f 99/123/1 115/124/1 116/122/1
f 98/125/1 114/126/1 115/124/1
f 97/127/1 113/111/1 114/126/1
f 128/98/1 144/128/1 143/129/1
f 127/99/1 143/129/1 142/130/1
f 126/101/1 142/130/1 141/131/1
f 125/103/1 141/131/1 140/132/1
f 124/105/1 140/132/1 139/133/1
f 123/107/1 139/133/1 138/134/1
f 122/109/1 138/134/1 129/135/1
f 120/113/1 136/136/1 137/137/1
f 119/116/1 135/138/1 136/136/1
f 118/118/1 134/139/1 135/138/1
f 117/120/1 133/140/1 134/139/1
f 116/122/1 132/141/1 133/140/1
f 115/124/1 131/142/1 132/141/1
f 114/126/1 130/143/1 131/142/1
f 113/111/1 129/135/1 130/143/1
f 144/128/1 160/144/1 159/145/1
f 143/129/1 159/145/1 158/146/1
f 142/130/1 158/146/1 157/147/1
f 141/131/1 157/147/1 156/148/1
f 140/132/1 156/148/1 155/149/1
f 139/133/1 155/149/1 154/150/1
f 138/134/1 154/150/1 145/151/1
f 136/136/1 152/152/1 153/153/1
f 135/138/1 151/154/1 152/152/1
f 134/139/1 150/155/1 151/154/1
f 133/140/1 149/156/1 150/155/1
f 132/141/1 148/157/1 149/156/1
f 131/142/1 147/158/1 148/157/1
f 130/143/1 146/159/1 147/158/1
f 129/135/1 145/151/1 146/159/1
f 160/144/1 176/160/1 175/161/1
f 159/145/1 175/161/1 174/162/1
f 158/146/1 174/162/1 173/163/1
f 157/147/1 173/163/1 172/164/1
f 156/148/1 172/164/1 171/165/1
f 155/149/1 171/165/1 170/166/1
f 154/150/1 170/166/1 161/167/1
f 152/152/1 168/168/1 169/169/1
f 151/154/1 167/170/1 168/168/1
f 150/155/1 166/171/1 167/170/1
f 149/156/1 165/172/1 166/171/1
f 148/157/1 164/173/1 165/172/1
f 147/158/1 163/174/1 164/173/1
f 146/159/1 162/175/1 163/174/1
f 145/151/1 161/167/1 162/175/1
f 176/160/1 192/176/1 191/177/1
f 175/161/1 191/177/1 190/178/1
f 174/162/1 190/178/1 189/179/1
f 173/163/1 189/179/1 188/180/1
f 172/164/1 188/180/1 187/181/1
f 171/165/1 187/181/1 186/182/1
f 170/166/1 186/182/1 177/183/1
f 168/168/1 184/184/1 185/185/1
f 167/170/1 183/186/1 184/184/1
f 166/171/1 182/187/1 183/186/1
f 165/172/1 181/188/1 182/187/1
f 164/173/1 180/189/1 181/188/1
f 163/174/1 179/190/1 180/189/1
f 162/175/1 178/191/1 179/190/1
f 161/167/1 177/183/1 178/191/1
f 192/176/1 208/192/1 207/193/1
f 191/177/1 207/193/1 206/194/1
f 190/178/1 206/194/1 205/195/1
f 189/179/1 205/195/1 204/196/1
f 188/180/1 204/196/1 203/197/1
f 187/181/1 203/197/1 202/198/1
f 186/182/1 202/198/1 193/199/1
f 184/184/1 200/200/1 201/201/1
f 183/186/1 199/202/1 200/200/1
f 182/187/1 198/203/1 199/202/1
f 181/188/1 197/204/1 198/203/1
f 180/189/1 196/205/1 197/204/1
f 179/190/1 195/206/1 196/205/1
f 178/191/1 194/207/1 195/206/1
f 177/183/1 193/199/1 194/207/1
f 208/192/1 224/208/1 223/209/1
f 207/193/1 223/209/1 222/210/1
f 206/194/1 222/210/1 221/211/1
f 205/195/1 221/211/1 220/212/1
f 204/196/1 220/212/1 219/213/1
f 203/197/1 219/213/1 218/214/1
f 202/198/1 218/214/1 209/215/1
f 200/200/1 216/216/1 217/217/1
f 199/202/1 215/218/1 216/216/1
f 198/203/1 214/219/1 215/218/1
f 197/204/1 213/220/1 214/219/1
f 196/205/1 212/221/1 213/220/1
f 195/206/1 211/222/1 212/221/1
f 194/207/1 210/223/1 211/222/1
f 193/199/1 209/215/1 210/223/1
f 1/224/1 2/1/1 3/3/1
f 4/2/1 2/1/1 6/5/1
f 6/5/1 5/4/1 8/7/1
f 8/7/1 7/6/1 10/9/1
f 10/9/1 9/8/1 12/11/1
f 12/11/1 11/10/1 14/13/1
f 14/13/1 13/12/1 16/15/1
f 16/15/1 15/14/1 18/17/1
f 1/224/1 3/3/1 19/19/1
f 19/19/1 20/18/1 21/21/1
f 21/21/1 22/20/1 23/23/1
f 23/23/1 24/22/1 25/25/1
f 25/25/1 26/24/1 27/27/1
f 27/27/1 28/26/1 29/29/1
f 29/29/1 30/28/1 31/31/1
f 32/30/1 30/28/1 48/33/1
f 30/28/1 28/26/1 47/32/1
f 28/26/1 26/24/1 46/34/1
f 26/24/1 24/22/1 45/35/1
f 24/22/1 22/20/1 44/36/1
f 22/20/1 20/18/1 43/37/1
f 20/18/1 3/3/1 42/38/1
f 16/15/1 18/17/1 40/41/1
f 14/13/1 16/15/1 39/42/1
f 12/11/1 14/13/1 38/43/1
f 10/9/1 12/11/1 37/44/1
f 8/7/1 10/9/1 36/45/1
f 6/5/1 8/7/1 35/46/1
f 4/2/1 6/5/1 34/47/1
f 3/3/1 4/2/1 33/39/1
f 48/33/1 47/32/1 64/49/1
f 47/32/1 46/34/1 63/48/1
f 46/34/1 45/35/1 62/50/1
f 45/35/1 44/36/1 61/51/1
f 44/36/1 43/37/1 60/52/1
f 43/37/1 42/38/1 59/53/1
f 42/38/1 33/39/1 58/54/1
f 40/41/1 41/40/1 56/57/1
f 39/42/1 40/41/1 55/58/1
f 38/43/1 39/42/1 54/59/1
f 37/44/1 38/43/1 53/60/1
f 36/45/1 37/44/1 52/61/1
f 35/46/1 36/45/1 51/62/1
f 34/47/1 35/46/1 50/63/1
f 33/39/1 34/47/1 49/55/1
f 64/49/1 63/48/1 80/65/1
f 63/48/1 62/50/1 79/64/1
f 62/50/1 61/51/1 78/66/1
f 61/51/1 60/52/1 77/67/1
f 60/52/1 59/53/1 76/68/1
f 59/53/1 58/54/1 75/69/1
f 58/54/1 49/55/1 74/70/1
f 56/57/1 57/56/1 72/73/1
f 55/58/1 56/57/1 71/74/1
f 54/59/1 55/58/1 70/75/1
f 53/60/1 54/59/1 69/76/1
f 52/61/1 53/60/1 68/77/1
f 51/62/1 52/61/1 67/78/1
f 50/63/1 51/62/1 66/79/1
f 49/55/1 50/63/1 65/71/1
f 80/65/1 79/64/1 96/81/1
f 79/64/1 78/66/1 95/80/1
f 78/66/1 77/67/1 94/82/1
f 77/67/1 76/68/1 93/83/1
f 76/68/1 75/69/1 92/84/1
f 75/69/1 74/70/1 91/85/1
f 74/70/1 65/71/1 90/86/1
f 72/73/1 73/72/1 88/89/1
f 71/74/1 72/73/1 87/90/1
f 70/75/1 71/74/1 86/91/1
f 69/76/1 70/75/1 85/92/1
f 68/77/1 69/76/1 84/93/1
f 67/78/1 68/77/1 83/94/1
f 66/79/1 67/78/1 82/95/1
f 65/71/1 66/79/1 81/87/1
f 111/100/1 112/97/1 127/99/1
f 110/102/1 111/100/1 126/101/1
f 109/104/1 110/102/1 125/103/1
f 108/106/1 109/104/1 124/105/1
f 107/108/1 108/106/1 123/107/1
f 106/110/1 107/108/1 122/109/1
f 97/127/1 106/110/1 113/111/1
f 105/225/1 104/112/1 121/114/1
f 104/112/1 103/115/1 120/113/1
f 103/115/1 102/117/1 119/116/1
f 102/117/1 101/119/1 118/118/1
f 101/119/1 100/121/1 117/120/1
f 100/121/1 99/123/1 116/122/1
f 99/123/1 98/125/1 115/124/1
f 98/125/1 97/127/1 114/126/1
f 127/99/1 128/98/1 143/129/1
f 126/101/1 127/99/1 142/130/1
f 125/103/1 126/101/1 141/131/1
f 124/105/1 125/103/1 140/132/1
f 123/107/1 124/105/1 139/133/1
f 122/109/1 123/107/1 138/134/1
f 113/111/1 122/109/1 129/135/1
f 121/114/1 120/113/1 137/137/1
f 120/113/1 119/116/1 136/136/1
f 119/116/1 118/118/1 135/138/1
f 118/118/1 117/120/1 134/139/1
f 117/120/1 116/122/1 133/140/1
f 116/122/1 115/124/1 132/141/1
f 115/124/1 114/126/1 131/142/1
f 114/126/1 113/111/1 130/143/1
f 143/129/1 144/128/1 159/145/1
f 142/130/1 143/129/1 158/146/1
f 141/131/1 142/130/1 157/147/1
f 140/132/1 141/131/1 156/148/1
f 139/133/1 140/132/1 155/149/1
f 138/134/1 139/133/1 154/150/1
f 129/135/1 138/134/1 145/151/1
f 137/137/1 136/136/1 153/153/1
f 136/136/1 135/138/1 152/152/1
f 135/138/1 134/139/1 151/154/1
f 134/139/1 133/140/1 150/155/1
f 133/140/1 132/141/1 149/156/1
f 132/141/1 131/142/1 148/157/1
f 131/142/1 130/143/1 147/158/1
f 130/143/1 129/135/1 146/159/1
f 159/145/1 160/144/1 175/161/1
f 158/146/1 159/145/1 174/162/1
f 157/147/1 158/146/1 173/163/1
f 156/148/1 157/147/1 172/164/1
f 155/149/1 156/148/1 171/165/1
f 154/150/1 155/149/1 170/166/1
f 145/151/1 154/150/1 161/167/1
f 153/153/1 152/152/1 169/169/1
f 152/152/1 151/154/1 168/168/1
f 151/154/1 150/155/1 167/170/1
f 150/155/1 149/156/1 166/171/1
f 149/156/1 148/157/1 165/172/1
f 148/157/1 147/158/1 164/173/1
f 147/158/1 146/159/1 163/174/1
f 146/159/1 145/151/1 162/175/1
f 175/161/1 176/160/1 191/177/1
f 174/162/1 175/161/1 190/178/1
f 173/163/1 174/162/1 189/179/1
f 172/164/1 173/163/1 188/180/1
f 171/165/1 172/164/1 187/181/1
f 170/166/1 171/165/1 186/182/1
f 161/167/1 170/166/1 177/183/1
f 169/169/1 168/168/1 185/185/1
f 168/168/1 167/170/1 184/184/1
f 167/170/1 166/171/1 183/186/1
f 166/171/1 165/172/1 182/187/1
f 165/172/1 164/173/1 181/188/1
f 164/173/1 163/174/1 180/189/1
f 163/174/1 162/175/1 179/190/1
f 162/175/1 161/167/1 178/191/1
f 191/177/1 192/176/1 207/193/1
f 190/178/1 191/177/1 206/194/1
f 189/179/1 190/178/1 205/195/1
f 188/180/1 189/179/1 204/196/1
f 187/181/1 188/180/1 203/197/1
f 186/182/1 187/181/1 202/198/1
f 177/183/1 186/182/1 193/199/1
f 185/185/1 184/184/1 201/201/1
f 184/184/1 183/186/1 200/200/1
f 183/186/1 182/187/1 199/202/1
f 182/187/1 181/188/1 198/203/1
f 181/188/1 180/189/1 197/204/1
f 180/189/1 179/190/1 196/205/1
f 179/190/1 178/191/1 195/206/1
f 178/191/1 177/183/1 194/207/1
f 207/193/1 208/192/1 223/209/1
f 206/194/1 207/193/1 222/210/1
f 205/195/1 206/194/1 221/211/1
f 204/196/1 205/195/1 220/212/1
f 203/197/1 204/196/1 219/213/1
f 202/198/1 203/197/1 218/214/1
f 193/199/1 202/198/1 209/215/1
f 201/201/1 200/200/1 217/217/1
f 200/200/1 199/202/1 216/216/1
f 199/202/1 198/203/1 215/218/1
f 198/203/1 197/204/1 214/219/1
f 197/204/1 196/205/1 213/220/1
f 196/205/1 195/206/1 212/221/1
f 195/206/1 194/207/1 211/222/1
f 194/207/1 193/199/1 210/223/1
f 111/96/2 29/96/2 112/96/2
f 110/96/2 27/96/2 111/96/2
f 109/96/2 25/96/2 110/96/2
f 108/96/2 23/96/2 109/96/2
f 107/96/2 21/96/2 108/96/2
f 106/96/2 19/96/2 107/96/2
f 97/96/2 1/96/2 106/96/2
f 105/96/2 17/96/2 104/96/2
f 104/96/2 15/96/2 103/96/2
f 103/96/2 13/96/2 102/96/2
f 102/96/2 11/96/2 101/96/2
f 101/96/2 9/96/2 100/96/2
f 100/96/2 7/96/2 99/96/2
f 99/96/2 5/96/2 98/96/2
f 98/96/2 2/96/2 97/96/2

