# Blender v2.74 (sub 0) OBJ File: 'spear.blend'
# www.blender.org
mtllib spear.mtl
o Cylinder
v 0.000000 0.634407 -0.015478
v -0.000000 0.634407 0.015478
v 0.000000 0.825169 0.000000
v 0.043301 0.581957 0.000000
v -0.043301 0.581957 0.000000
v -0.000000 0.519962 -0.000000
v 0.000000 -1.406831 -0.030000
v -0.000000 0.593587 -0.017139
v 0.025981 -1.406831 -0.015000
v 0.025981 0.593587 -0.015000
v 0.025981 -1.406831 0.015000
v 0.025981 0.593587 0.015000
v -0.000000 -1.406831 0.030000
v -0.000000 0.593587 0.017139
v -0.025981 -1.406831 0.015000
v -0.025981 0.593587 0.015000
v -0.025981 -1.406831 -0.015000
v -0.025981 0.593587 -0.015000
v 0.025981 -1.406831 0.000000
v 0.025981 0.560837 0.000000
v -0.025981 -1.406831 -0.000000
v -0.025981 0.560837 -0.000000
v -0.025981 0.593587 0.007500
v -0.025981 -1.406831 0.007500
v -0.025981 -1.406831 -0.007500
v -0.025981 0.593587 -0.007500
v 0.025981 0.593587 -0.007500
v 0.025981 -1.406831 -0.007500
v 0.025981 -1.406831 0.007500
v 0.025981 0.593587 0.007500
v 0.000000 0.503641 -0.030000
v 0.025981 0.503641 -0.015000
v 0.025981 0.503641 0.015000
v -0.000000 0.503641 0.030000
v -0.025981 0.503641 0.015000
v -0.025981 0.503641 -0.015000
v 0.025981 0.505076 0.000000
v -0.025981 0.505076 -0.000000
v -0.025981 0.503641 0.007500
v -0.025981 0.503641 -0.007500
v 0.025981 0.503641 -0.007500
v 0.025981 0.503641 0.007500
vn 0.082100 0.000000 -0.996600
vn 1.000000 0.000000 0.000000
vn 0.082100 0.000000 0.996600
vn -0.082100 0.000000 0.996600
vn -0.000000 0.223200 0.974800
vn -0.082100 0.000000 -0.996600
vn -1.000000 0.000000 0.000000
vn 0.000000 -1.000000 0.000000
vn 0.000000 0.223200 -0.974800
vn 0.000000 1.000000 0.000000
vn -0.500000 0.000000 -0.866000
vn -0.500000 0.000000 0.866000
vn 0.500000 0.000000 0.866000
vn 0.500000 0.000000 -0.866000
vn 0.496200 0.122900 -0.859500
vn 0.496200 0.122900 0.859500
vn -0.496200 0.122900 0.859500
vn -0.496200 0.122900 -0.859500
vn 0.188400 -0.131600 0.973200
vn -0.188400 -0.131600 0.973200
vn -0.413600 0.073600 0.907500
vn -0.413600 0.073600 -0.907500
vn 0.413600 0.073600 -0.907500
vn 0.413600 0.073600 0.907500
vn 0.188400 -0.131600 -0.973200
vn -0.188400 -0.131600 -0.973200
usemtl wooden_grip
s off
f 8//1 10//1 32//1
f 30//2 12//2 33//2
f 33//3 12//3 14//3
f 14//4 16//4 35//4
f 22//5 20//5 27//5
f 36//6 18//6 8//6
f 26//7 18//7 36//7
f 21//8 19//8 24//8
f 41//2 27//2 20//2
f 39//7 23//7 22//7
f 16//7 23//7 39//7
f 22//7 26//7 40//7
f 10//2 27//2 41//2
f 20//2 30//2 42//2
f 20//9 22//9 23//9
f 27//10 8//10 26//10
f 14//10 30//10 23//10
f 19//2 37//2 42//2
f 32//2 41//2 28//2
f 21//7 38//7 40//7
f 35//7 39//7 24//7
f 39//7 38//7 21//7
f 41//2 37//2 19//2
f 40//7 36//7 17//7
f 36//11 31//11 7//11
f 34//12 35//12 15//12
f 33//13 34//13 13//13
f 42//2 33//2 11//2
f 31//14 32//14 9//14
f 31//15 8//15 32//15
f 42//2 30//2 33//2
f 34//16 33//16 14//16
f 34//17 14//17 35//17
f 26//5 22//5 27//5
f 31//18 36//18 8//18
f 40//7 26//7 36//7
f 25//8 17//8 7//8
f 19//8 21//8 25//8
f 13//8 15//8 24//8
f 29//8 11//8 13//8
f 24//8 19//8 29//8
f 7//8 9//8 28//8
f 19//8 25//8 7//8
f 29//8 13//8 24//8
f 7//8 28//8 19//8
f 37//2 41//2 20//2
f 38//7 39//7 22//7
f 35//7 16//7 39//7
f 38//7 22//7 40//7
f 32//2 10//2 41//2
f 37//2 20//2 42//2
f 30//9 20//9 23//9
f 8//10 27//10 10//10
f 8//10 18//10 26//10
f 30//10 14//10 12//10
f 14//10 23//10 16//10
f 29//2 19//2 42//2
f 9//2 32//2 28//2
f 25//7 21//7 40//7
f 15//7 35//7 24//7
f 24//7 39//7 21//7
f 28//2 41//2 19//2
f 25//7 40//7 17//7
f 17//11 36//11 7//11
f 13//12 34//12 15//12
f 11//13 33//13 13//13
f 29//2 42//2 11//2
f 7//14 31//14 9//14
usemtl flint_tip
f 4//19 2//19 6//19
f 5//20 6//20 2//20
f 3//21 5//21 2//21
f 3//22 1//22 5//22
f 3//23 4//23 1//23
f 3//24 2//24 4//24
f 4//25 6//25 1//25
f 5//26 1//26 6//26
